# xmcd
#
# Track frame offsets:
#	150
#	13877
#	30829
#	42006
#	58358
#	72835
#	90612
#	104564
#	114466
#	128193
#	142145
#	153397
#	166824
#	181901
#
# Disc length: 2612 seconds
#
# Revision: 2
# Processed by: cddbd v1.5.1PL2 Copyright (c) Steve Scherf et al.
# Submitted via: audiograbber 1.83.01
#
DISCID=bc0a320e
DTITLE=Various Artist - Kickin' Country Volume 1
DYEAR=1900
DGENRE=Country
TTITLE0=Travis Tritt - T-R-O-U-B-L-E
TTITLE1=Little Texas - Kick a little
TTITLE2=Confederate Railroad - When and Where
TTITLE3=Tracy Lawrence - I see it now 
TTITLE4=Faith Hill - Let's go to Vegas
TTITLE5=John Michael Montgoemry - I can love you like that 
TTITLE6=Woody Lee - I lioke the sound of that
TTITLE7=The Hutchens - Knock Knock 
TTITLE8=David Ball - Thinkin' problem 
TTITLE9=Victoria Shaw - A day in the life of a single mother
TTITLE10=Ricky Skaggs - Solid Ground 
TTITLE11=Dwight Yoakam - Pocket of a clown 
TTITLE12=Nela McCoy - If I was a drinkin' man 
TTITLE13=Jeff Foxworthy - Party all night
EXTD=
EXTT0=
EXTT1=
EXTT2=
EXTT3=
EXTT4=
EXTT5=
EXTT6=
EXTT7=
EXTT8=
EXTT9=
EXTT10=
EXTT11=
EXTT12=
EXTT13=
PLAYORDER=
